<svg width="75" height="35" viewBox="0 0 75 35" fill="none" xmlns="http://www.w3.org/2000/svg">
<path d="M3.70898 0.317383V8.25391C3.70898 9.08008 3.94043 9.73633 4.40332 10.2227C4.87207 10.7031 5.52832 10.9434 6.37207 10.9434C7.20996 10.9434 7.86035 10.7031 8.32324 10.2227C8.79199 9.73633 9.02637 9.08008 9.02637 8.25391V0.317383H11.6807V8.51758C11.6807 9.92383 11.1973 11.0605 10.2305 11.9277C9.26953 12.7891 7.9834 13.2197 6.37207 13.2197C4.75488 13.2197 3.46289 12.7891 2.49609 11.9277C1.53516 11.0605 1.05469 9.92383 1.05469 8.51758V0.317383H3.70898ZM16.6331 13H13.9788V0.317383H16.6331V13ZM0.580078 30.3877H3.1377C3.19629 30.9033 3.46875 31.3223 3.95508 31.6445C4.44727 31.9609 5.04785 32.1191 5.75684 32.1191C6.45996 32.1191 7.03125 31.9697 7.4707 31.6709C7.91602 31.3662 8.13867 30.9795 8.13867 30.5107C8.13867 30.1006 7.97461 29.7695 7.64648 29.5176C7.31836 29.2656 6.77051 29.0547 6.00293 28.8848L4.35059 28.5244C2.02441 28.0264 0.861328 26.8457 0.861328 24.9824C0.861328 23.8223 1.3125 22.8848 2.21484 22.1699C3.12305 21.4551 4.28906 21.0977 5.71289 21.0977C7.17773 21.0977 8.34668 21.4463 9.21973 22.1436C10.0928 22.835 10.541 23.7578 10.5645 24.9121H8.07715C8.03613 24.3789 7.79883 23.96 7.36523 23.6553C6.9375 23.3447 6.38965 23.1895 5.72168 23.1895C5.06543 23.1895 4.53516 23.333 4.13086 23.6201C3.73242 23.9072 3.5332 24.2852 3.5332 24.7539C3.5332 25.1406 3.69434 25.4541 4.0166 25.6943C4.34473 25.9346 4.875 26.1396 5.60742 26.3096L7.14551 26.6348C8.41699 26.9043 9.34277 27.3262 9.92285 27.9004C10.5029 28.4688 10.793 29.2363 10.793 30.2031C10.793 31.4336 10.3301 32.4121 9.4043 33.1387C8.47852 33.8594 7.22754 34.2197 5.65137 34.2197C4.12207 34.2197 2.90332 33.8799 1.99512 33.2002C1.09277 32.5146 0.621094 31.5771 0.580078 30.3877ZM21.0101 31.8027V34H12.6077V21.3174H21.0101V23.5059H15.262V26.5645H20.6849V28.6035H15.262V31.8027H21.0101ZM25.6461 34H23.1061V21.3174H25.3209L31.2448 29.5791H31.3151V21.3174H33.8551V34H31.6579L25.7252 25.6943H25.6461V34ZM35.3711 30.2646H37.9463C37.958 30.7803 38.1162 31.1934 38.4209 31.5039C38.7314 31.8145 39.1357 31.9697 39.6338 31.9697C40.1904 31.9697 40.6123 31.8027 40.8994 31.4688C41.1923 31.1348 41.3388 30.6484 41.3388 30.0098V21.3174H43.9931V30.0273C43.9931 31.3691 43.6123 32.4121 42.8505 33.1562C42.0888 33.8945 41.0254 34.2637 39.6601 34.2637C38.3652 34.2637 37.3252 33.9004 36.54 33.1738C35.7607 32.4473 35.3711 31.4775 35.3711 30.2646ZM47.636 22.8643C48.7376 21.6865 50.2288 21.0977 52.1096 21.0977C53.9905 21.0977 55.4788 21.6865 56.5745 22.8643C57.6761 24.042 58.2268 25.6416 58.2268 27.6631C58.2268 29.6787 57.6761 31.2754 56.5745 32.4531C55.4729 33.6309 53.9846 34.2197 52.1096 34.2197C50.2288 34.2197 48.7376 33.6309 47.636 32.4531C46.5403 31.2754 45.9925 29.6787 45.9925 27.6631C45.9925 25.6416 46.5403 24.042 47.636 22.8643ZM54.5882 24.4902C53.9729 23.7051 53.1468 23.3125 52.1096 23.3125C51.0725 23.3125 50.2434 23.7051 49.6223 24.4902C49.0071 25.2754 48.6995 26.333 48.6995 27.6631C48.6995 28.9873 49.0071 30.042 49.6223 30.8271C50.2376 31.6064 51.0667 31.9961 52.1096 31.9961C53.1468 31.9961 53.9729 31.6064 54.5882 30.8271C55.2034 30.042 55.511 28.9873 55.511 27.6631C55.511 26.333 55.2034 25.2754 54.5882 24.4902ZM62.775 23.3916V27.4346H65.0602C65.7281 27.4346 66.2467 27.2559 66.6158 26.8984C66.9908 26.541 67.1783 26.0459 67.1783 25.4131C67.1783 24.7979 66.985 24.3086 66.5982 23.9453C66.2115 23.5762 65.69 23.3916 65.0338 23.3916H62.775ZM62.775 29.3594V34H60.1207V21.3174H65.315C66.7623 21.3174 67.8873 21.6777 68.69 22.3984C69.4986 23.1133 69.9029 24.1006 69.9029 25.3604C69.9029 26.1865 69.6979 26.9248 69.2877 27.5752C68.8834 28.2197 68.3209 28.6826 67.6002 28.9639L70.2721 34H67.2662L64.902 29.3594H62.775Z" fill="#333333"/>
<path d="M74.2841 33.6924C74.0087 33.9678 73.6747 34.1055 73.2822 34.1055C72.8896 34.1055 72.5556 33.9678 72.2802 33.6924C72.0048 33.417 71.8671 33.083 71.8671 32.6904C71.8671 32.2979 72.0048 31.9639 72.2802 31.6885C72.5556 31.4131 72.8896 31.2754 73.2822 31.2754C73.6747 31.2754 74.0087 31.4131 74.2841 31.6885C74.5595 31.9639 74.6972 32.2979 74.6972 32.6904C74.6972 33.083 74.5595 33.417 74.2841 33.6924Z" fill="#58D674"/>
</svg>
